<?xml version="1.0" standalone="no"?><!DOCTYPE svg PUBLIC "-//W3C//DTD SVG 1.1//EN" "http://www.w3.org/Graphics/SVG/1.1/DTD/svg11.dtd"><svg t="1605271541063" class="icon" viewBox="0 0 1024 1024" version="1.1" xmlns="http://www.w3.org/2000/svg" p-id="6516" xmlns:xlink="http://www.w3.org/1999/xlink" width="200" height="200"><defs><style type="text/css"></style></defs><path d="M210.96 848.05c-11.58-13.35-10.14-33.56 3.22-45.14l331.38-282.1c4.61-4 4.6-11.17-0.04-15.14L214.13 221.19c-13.41-11.51-14.95-31.71-3.44-45.12 11.51-13.41 31.71-14.95 45.12-3.44L634.7 497.88c9.27 7.96 9.3 22.29 0.07 30.29L256.1 851.27c-13.35 11.57-33.56 10.13-45.14-3.22z" p-id="6517"></path><path d="M430.31 848.05c-11.58-13.35-10.14-33.56 3.22-45.14l331.38-282.1c4.61-4 4.6-11.17-0.04-15.14L433.48 221.19c-13.41-11.51-14.95-31.71-3.44-45.12 11.51-13.41 31.71-14.95 45.12-3.44l378.88 325.25c9.27 7.96 9.3 22.29 0.07 30.29l-378.68 323.1c-13.33 11.57-33.54 10.13-45.12-3.22z" p-id="6518"></path></svg>