<?xml version="1.0" standalone="no"?><!DOCTYPE svg PUBLIC "-//W3C//DTD SVG 1.1//EN" "http://www.w3.org/Graphics/SVG/1.1/DTD/svg11.dtd"><svg t="1605271536353" class="icon" viewBox="0 0 1024 1024" version="1.1" xmlns="http://www.w3.org/2000/svg" p-id="6381" xmlns:xlink="http://www.w3.org/1999/xlink" width="200" height="200"><defs><style type="text/css"></style></defs><path d="M813.04 175.95c11.58 13.35 10.14 33.56-3.22 45.14l-331.38 282.1c-4.61 4-4.6 11.17 0.04 15.14l331.39 284.48c13.41 11.51 14.95 31.71 3.44 45.12-11.51 13.41-31.71 14.95-45.12 3.44L389.3 526.12c-9.27-7.96-9.3-22.29-0.07-30.29l378.68-323.1c13.34-11.57 33.55-10.13 45.13 3.22z" p-id="6382"></path><path d="M593.69 175.95c11.58 13.35 10.14 33.56-3.22 45.14l-331.38 282.1c-4.61 4-4.6 11.17 0.04 15.14l331.39 284.48c13.41 11.51 14.95 31.71 3.44 45.12-11.51 13.41-31.71 14.95-45.12 3.44L169.95 526.12c-9.27-7.96-9.3-22.29-0.07-30.29l378.68-323.1c13.34-11.57 33.55-10.13 45.13 3.22z" p-id="6383"></path></svg>